# xmcd
#
# Track frame offsets: 
#        150
#        5691
#        22725
#        32985
#        56172
#        72201
#        91569
#
# Disc length: 1646 seconds
#
# Revision: 0
# Processed by: cddbd v1.5.1PL0 Copyright (c) Steve Scherf et al.
# Submitted via: ExactAudioCopy v0.90b4
#
DISCID=4d066c07
DTITLE=Jon Rae Fletcher and The River - Jon Rae Fletcher and The River
DYEAR=2002
DGENRE=Country
TTITLE0=Introduction to the River
TTITLE1=The Dreamer
TTITLE2=It Shone
TTITLE3=When You're Out of Place
TTITLE4=Young Man Meets Old Death
TTITLE5=Fourteen Years
TTITLE6=The River
EXTD=
EXTT0=
EXTT1=
EXTT2=
EXTT3=
EXTT4=
EXTT5=
EXTT6=
PLAYORDER=
